<svg xmlns="http://www.w3.org/2000/svg" width="40.036" height="34.433" viewBox="0 0 40.036 34.433">
  <path id="logo-psyche"  d="M596.982,17.7c4.691,3.922,10.944,19.327-.39,24.824,8.034-6.412,3.6-13.364-1.754-15.807a10.363,10.363,0,0,0,2.442-1.465,7.651,7.651,0,0,1-3.327,1.089c-3.933-3.187-6.6-5.713-6.5-10.437a9.214,9.214,0,0,0,3.365,1.048c-4.177-1.612-6.248-4.928-6.073-8.861,5.831,5.586,23.716,5.579,18.634,25.565.46-5.9-1.824-12.21-6.394-15.956Zm15.535,0c-4.691,3.922-10.944,19.327.39,24.824-8.033-6.412-3.594-13.364,1.754-15.807a10.334,10.334,0,0,1-2.441-1.465,7.647,7.647,0,0,0,3.326,1.089c3.933-3.187,6.6-5.713,6.5-10.437a9.226,9.226,0,0,1-3.365,1.048c4.177-1.612,6.247-4.928,6.073-8.861-5.831,5.586-23.716,5.579-18.635,25.565C605.663,27.75,607.948,21.445,612.517,17.7Z" transform="translate(-584.732 -8.09)" fill="#3fa299" fill-rule="evenodd"/>
</svg>
